<?xml version="1.0" encoding="UTF-8" standalone="no"?>
<svg
   xmlns:dc="http://purl.org/dc/elements/1.1/"
   xmlns:cc="http://creativecommons.org/ns#"
   xmlns:rdf="http://www.w3.org/1999/02/22-rdf-syntax-ns#"
   xmlns:svg="http://www.w3.org/2000/svg"
   xmlns="http://www.w3.org/2000/svg"
   xmlns:sodipodi="http://sodipodi.sourceforge.net/DTD/sodipodi-0.dtd"
   xmlns:inkscape="http://www.inkscape.org/namespaces/inkscape"
   style="enable-background:new 0 0 512 512;"
   version="1.1"
   viewBox="0 0 512 512"
   xml:space="preserve"
   id="svg18"
   sodipodi:docname="Ai.svg"
   inkscape:version="0.92.4 (5da689c313, 2019-01-14)"><metadata
     id="metadata24"><rdf:RDF><cc:Work
         rdf:about=""><dc:format>image/svg+xml</dc:format><dc:type
           rdf:resource="http://purl.org/dc/dcmitype/StillImage" /></cc:Work></rdf:RDF></metadata><defs
     id="defs22" /><sodipodi:namedview
     pagecolor="#ffffff"
     bordercolor="#666666"
     borderopacity="1"
     objecttolerance="10"
     gridtolerance="10"
     guidetolerance="10"
     inkscape:pageopacity="0"
     inkscape:pageshadow="2"
     inkscape:window-width="1920"
     inkscape:window-height="1017"
     id="namedview20"
     showgrid="false"
     inkscape:zoom="0.4609375"
     inkscape:cx="-95.751563"
     inkscape:cy="256"
     inkscape:window-x="3832"
     inkscape:window-y="515"
     inkscape:window-maximized="1"
     inkscape:current-layer="svg18" /><style
     type="text/css"
     id="style2">
	.st0{display:none;}
	.st1{fill:#FD7904;}
	.st2{fill:#271300;}
	.st3{fill:#FD7B02;}
</style><g
     class="st0"
     id="Layer_1" /><g
     id="Layer_5"
     transform="matrix(1.5200616,0,0,1.5072205,-134.19451,-128.73836)"><rect
       class="st2"
       height="337.89999"
       width="337.89999"
       x="87"
       y="87"
       id="rect7"
       style="fill:#271300" /><path
       class="st3"
       d="m 342.7,333.9 h -21.9 c -2.4,0 -4.3,-1.9 -4.3,-4.3 V 204.2 c 0,-2.4 1.9,-4.3 4.3,-4.3 h 21.9 c 2.4,0 4.3,1.9 4.3,4.3 v 125.4 c 0,2.3 -1.9,4.3 -4.3,4.3 z"
       id="path9"
       inkscape:connector-curvature="0"
       style="fill:#fd7b02" /><circle
       class="st3"
       cx="331.79999"
       cy="166.3"
       r="17.799999"
       id="circle11"
       style="fill:#fd7b02" /><path
       class="st3"
       d="m 166,333.9 h 11.4 c 3.7,0 6.9,-2.5 7.9,-6 l 10.4,-37.8 c 1,-3.5 4.2,-6 7.9,-6 h 36.8 c 3.5,0 6.7,2.3 7.8,5.6 l 12.6,38.6 c 1.1,3.4 4.2,5.6 7.8,5.6 h 15.8 c 5.5,0 9.4,-5.3 7.8,-10.5 L 242.8,158.9 c -1,-3.5 -4.2,-5.8 -7.8,-5.8 h -24 c -3.7,0 -6.9,2.5 -7.9,6 l -44.9,164.5 c -1.5,5.1 2.4,10.3 7.8,10.3 z"
       id="path13"
       inkscape:connector-curvature="0"
       style="fill:#fd7b02" /><polygon
       class="st2"
       points="241.7,256.3 222.3,187 204.7,256.3 "
       id="polygon15"
       style="fill:#271300" /></g></svg>